<svg width="80" height="80" viewBox="0 0 80 80" fill="none" xmlns="http://www.w3.org/2000/svg">
<circle cx="40" cy="40" r="40" fill="#3E6E00"/>
<g clip-path="url(#clip0_7_837)">
<path d="M50.4107 46.4608C49.1039 45.1707 47.4725 45.1707 46.174 46.4608C45.1835 47.443 44.193 48.4252 43.2191 49.424C42.9527 49.6987 42.728 49.757 42.4034 49.5738C41.7625 49.2243 41.0799 48.9413 40.464 48.5584C37.5923 46.7521 35.1868 44.4299 33.0559 41.8162C31.9988 40.5178 31.0583 39.1277 30.4007 37.5629C30.2675 37.2466 30.2925 37.0385 30.5505 36.7804C31.541 35.8232 32.5066 34.841 33.4804 33.8589C34.8372 32.4938 34.8372 30.8956 33.4721 29.5222C32.698 28.7398 31.9239 27.9741 31.1498 27.1916C30.3508 26.3926 29.56 25.5852 28.7526 24.7944C27.4458 23.5209 25.8144 23.5209 24.5159 24.8028C23.5171 25.7849 22.5599 26.7921 21.5444 27.7576C20.6038 28.6483 20.1294 29.7387 20.0295 31.0122C19.8713 33.0848 20.3791 35.0408 21.0949 36.9469C22.5599 40.8923 24.7906 44.3966 27.4958 47.6095C31.1498 51.9544 35.5114 55.3921 40.6138 57.8725C42.9111 58.9879 45.2917 59.8452 47.8803 59.9867C49.6616 60.0866 51.2098 59.6371 52.45 58.2471C53.299 57.2982 54.2562 56.4325 55.1552 55.5252C56.4869 54.1768 56.4953 52.5454 55.1718 51.2136C53.5903 49.6238 52.0005 48.0423 50.4107 46.4608Z" fill="white"/>
<path d="M48.8204 39.8269L51.8918 39.3025C51.4091 36.4808 50.0773 33.9255 48.0546 31.8945C45.9155 29.7553 43.2103 28.4069 40.2304 27.9907L39.7976 31.0788C42.1033 31.4034 44.2008 32.4439 45.8572 34.1003C47.422 35.6651 48.4459 37.6461 48.8204 39.8269Z" fill="white"/>
<path d="M53.6235 26.4758C50.0776 22.9299 45.5912 20.6909 40.6386 20L40.2058 23.0881C44.4842 23.6874 48.363 25.6268 51.4261 28.6815C54.331 31.5865 56.2371 35.2572 56.928 39.2942L59.9994 38.7698C59.192 34.0919 56.9862 29.8468 53.6235 26.4758Z" fill="white"/>
</g>
<defs>
<clipPath id="clip0_7_837">
<rect width="40" height="40" fill="white" transform="translate(20 20)"/>
</clipPath>
</defs>
</svg>
